<mxfile host="app.diagrams.net" modified="2022-12-24T07:06:37.006Z" agent="5.0 (Macintosh; Intel Mac OS X 10_15_7) AppleWebKit/605.1.15 (KHTML, like Gecko) Version/16.1 Safari/605.1.15" etag="2KWWCwfJU_MAcVu8FP_d" version="20.7.4" type="github">
  <diagram id="C5RBs43oDa-KdzZeNtuy" name="Page-1">
    <mxGraphModel dx="954" dy="675" grid="1" gridSize="10" guides="1" tooltips="1" connect="1" arrows="1" fold="1" page="1" pageScale="1" pageWidth="827" pageHeight="1169" math="0" shadow="0">
      <root>
        <mxCell id="WIyWlLk6GJQsqaUBKTNV-0" />
        <mxCell id="WIyWlLk6GJQsqaUBKTNV-1" parent="WIyWlLk6GJQsqaUBKTNV-0" />
        <mxCell id="GH8MuH2LOj_dA2oBdt18-5" style="edgeStyle=orthogonalEdgeStyle;rounded=0;orthogonalLoop=1;jettySize=auto;html=1;entryX=0.5;entryY=0;entryDx=0;entryDy=0;" edge="1" parent="WIyWlLk6GJQsqaUBKTNV-1" source="GH8MuH2LOj_dA2oBdt18-1" target="GH8MuH2LOj_dA2oBdt18-4">
          <mxGeometry relative="1" as="geometry" />
        </mxCell>
        <mxCell id="GH8MuH2LOj_dA2oBdt18-1" value="Uygulamayı Aç" style="html=1;dashed=0;whitespace=wrap;shape=mxgraph.dfd.start" vertex="1" parent="WIyWlLk6GJQsqaUBKTNV-1">
          <mxGeometry x="370" y="30" width="126" height="40" as="geometry" />
        </mxCell>
        <mxCell id="GH8MuH2LOj_dA2oBdt18-18" style="edgeStyle=orthogonalEdgeStyle;rounded=0;orthogonalLoop=1;jettySize=auto;html=1;entryX=0.5;entryY=0;entryDx=0;entryDy=0;" edge="1" parent="WIyWlLk6GJQsqaUBKTNV-1" source="GH8MuH2LOj_dA2oBdt18-2" target="GH8MuH2LOj_dA2oBdt18-16">
          <mxGeometry relative="1" as="geometry" />
        </mxCell>
        <mxCell id="GH8MuH2LOj_dA2oBdt18-2" value="Giriş yap" style="html=1;dashed=0;whitespace=wrap;" vertex="1" parent="WIyWlLk6GJQsqaUBKTNV-1">
          <mxGeometry x="200" y="135" width="117" height="40" as="geometry" />
        </mxCell>
        <mxCell id="GH8MuH2LOj_dA2oBdt18-6" value="Evet" style="edgeStyle=orthogonalEdgeStyle;rounded=0;orthogonalLoop=1;jettySize=auto;html=1;entryX=1;entryY=0.5;entryDx=0;entryDy=0;" edge="1" parent="WIyWlLk6GJQsqaUBKTNV-1" source="GH8MuH2LOj_dA2oBdt18-4" target="GH8MuH2LOj_dA2oBdt18-2">
          <mxGeometry x="-0.303" y="-10" relative="1" as="geometry">
            <mxPoint as="offset" />
          </mxGeometry>
        </mxCell>
        <mxCell id="GH8MuH2LOj_dA2oBdt18-8" value="Hayır" style="edgeStyle=orthogonalEdgeStyle;rounded=0;orthogonalLoop=1;jettySize=auto;html=1;entryX=0;entryY=0.5;entryDx=0;entryDy=0;" edge="1" parent="WIyWlLk6GJQsqaUBKTNV-1" source="GH8MuH2LOj_dA2oBdt18-4" target="GH8MuH2LOj_dA2oBdt18-7">
          <mxGeometry x="-0.2" y="-13" relative="1" as="geometry">
            <mxPoint as="offset" />
          </mxGeometry>
        </mxCell>
        <mxCell id="GH8MuH2LOj_dA2oBdt18-4" value="Hesabın var mı?" style="rhombus;whiteSpace=wrap;html=1;shadow=0;fontFamily=Helvetica;fontSize=12;align=center;strokeWidth=1;spacing=6;spacingTop=-4;" vertex="1" parent="WIyWlLk6GJQsqaUBKTNV-1">
          <mxGeometry x="383" y="115" width="100" height="80" as="geometry" />
        </mxCell>
        <mxCell id="GH8MuH2LOj_dA2oBdt18-9" style="edgeStyle=orthogonalEdgeStyle;rounded=0;orthogonalLoop=1;jettySize=auto;html=1;exitX=0.5;exitY=1;exitDx=0;exitDy=0;entryX=0.5;entryY=0;entryDx=0;entryDy=0;" edge="1" parent="WIyWlLk6GJQsqaUBKTNV-1" source="GH8MuH2LOj_dA2oBdt18-7" target="GH8MuH2LOj_dA2oBdt18-10">
          <mxGeometry relative="1" as="geometry">
            <mxPoint x="481.5" y="325" as="targetPoint" />
          </mxGeometry>
        </mxCell>
        <mxCell id="GH8MuH2LOj_dA2oBdt18-7" value="Kayıt ol" style="html=1;dashed=0;whitespace=wrap;" vertex="1" parent="WIyWlLk6GJQsqaUBKTNV-1">
          <mxGeometry x="581.5" y="135" width="117" height="40" as="geometry" />
        </mxCell>
        <mxCell id="GH8MuH2LOj_dA2oBdt18-11" value="Randevu" style="edgeStyle=orthogonalEdgeStyle;rounded=0;orthogonalLoop=1;jettySize=auto;html=1;entryX=1;entryY=0.5;entryDx=0;entryDy=0;" edge="1" parent="WIyWlLk6GJQsqaUBKTNV-1" source="GH8MuH2LOj_dA2oBdt18-10" target="GH8MuH2LOj_dA2oBdt18-12">
          <mxGeometry x="0.0186" y="5" relative="1" as="geometry">
            <mxPoint x="480" y="265" as="targetPoint" />
            <mxPoint as="offset" />
          </mxGeometry>
        </mxCell>
        <mxCell id="GH8MuH2LOj_dA2oBdt18-15" value="İşletme hesabı" style="edgeStyle=orthogonalEdgeStyle;rounded=0;orthogonalLoop=1;jettySize=auto;html=1;entryX=0;entryY=0.5;entryDx=0;entryDy=0;" edge="1" parent="WIyWlLk6GJQsqaUBKTNV-1" source="GH8MuH2LOj_dA2oBdt18-10" target="GH8MuH2LOj_dA2oBdt18-14">
          <mxGeometry relative="1" as="geometry" />
        </mxCell>
        <mxCell id="GH8MuH2LOj_dA2oBdt18-10" value="Yapacağın işlem" style="rhombus;whiteSpace=wrap;html=1;shadow=0;fontFamily=Helvetica;fontSize=12;align=center;strokeWidth=1;spacing=6;spacingTop=-4;" vertex="1" parent="WIyWlLk6GJQsqaUBKTNV-1">
          <mxGeometry x="585.75" y="220" width="108.5" height="90" as="geometry" />
        </mxCell>
        <mxCell id="GH8MuH2LOj_dA2oBdt18-17" style="edgeStyle=orthogonalEdgeStyle;rounded=0;orthogonalLoop=1;jettySize=auto;html=1;entryX=1;entryY=0.5;entryDx=0;entryDy=0;" edge="1" parent="WIyWlLk6GJQsqaUBKTNV-1" source="GH8MuH2LOj_dA2oBdt18-12" target="GH8MuH2LOj_dA2oBdt18-16">
          <mxGeometry relative="1" as="geometry" />
        </mxCell>
        <mxCell id="GH8MuH2LOj_dA2oBdt18-12" value="Kayıt oluştur" style="html=1;dashed=0;whitespace=wrap;" vertex="1" parent="WIyWlLk6GJQsqaUBKTNV-1">
          <mxGeometry x="374.5" y="245" width="117" height="40" as="geometry" />
        </mxCell>
        <mxCell id="GH8MuH2LOj_dA2oBdt18-21" style="edgeStyle=orthogonalEdgeStyle;rounded=0;orthogonalLoop=1;jettySize=auto;html=1;entryX=0.5;entryY=0;entryDx=0;entryDy=0;exitX=0.5;exitY=1;exitDx=0;exitDy=0;" edge="1" parent="WIyWlLk6GJQsqaUBKTNV-1" source="GH8MuH2LOj_dA2oBdt18-14" target="GH8MuH2LOj_dA2oBdt18-20">
          <mxGeometry relative="1" as="geometry" />
        </mxCell>
        <mxCell id="GH8MuH2LOj_dA2oBdt18-14" value="Hesap oluştur" style="html=1;dashed=0;whitespace=wrap;" vertex="1" parent="WIyWlLk6GJQsqaUBKTNV-1">
          <mxGeometry x="780" y="245" width="117" height="40" as="geometry" />
        </mxCell>
        <mxCell id="GH8MuH2LOj_dA2oBdt18-27" style="edgeStyle=orthogonalEdgeStyle;rounded=0;orthogonalLoop=1;jettySize=auto;html=1;entryX=0.6;entryY=0.35;entryDx=0;entryDy=0;entryPerimeter=0;" edge="1" parent="WIyWlLk6GJQsqaUBKTNV-1" source="GH8MuH2LOj_dA2oBdt18-16" target="GH8MuH2LOj_dA2oBdt18-26">
          <mxGeometry relative="1" as="geometry" />
        </mxCell>
        <mxCell id="GH8MuH2LOj_dA2oBdt18-16" value="Ana sayfa" style="html=1;dashed=0;whitespace=wrap;" vertex="1" parent="WIyWlLk6GJQsqaUBKTNV-1">
          <mxGeometry x="200" y="245" width="117" height="40" as="geometry" />
        </mxCell>
        <mxCell id="GH8MuH2LOj_dA2oBdt18-24" style="edgeStyle=orthogonalEdgeStyle;rounded=0;orthogonalLoop=1;jettySize=auto;html=1;entryX=0.5;entryY=0;entryDx=0;entryDy=0;" edge="1" parent="WIyWlLk6GJQsqaUBKTNV-1" source="GH8MuH2LOj_dA2oBdt18-20" target="GH8MuH2LOj_dA2oBdt18-23">
          <mxGeometry relative="1" as="geometry" />
        </mxCell>
        <mxCell id="GH8MuH2LOj_dA2oBdt18-20" value="İşletme bilgilerini doldur" style="html=1;dashed=0;whitespace=wrap;" vertex="1" parent="WIyWlLk6GJQsqaUBKTNV-1">
          <mxGeometry x="768.5" y="340" width="140" height="40" as="geometry" />
        </mxCell>
        <mxCell id="GH8MuH2LOj_dA2oBdt18-22" value="Bitiş" style="html=1;dashed=0;whitespace=wrap;shape=mxgraph.dfd.start" vertex="1" parent="WIyWlLk6GJQsqaUBKTNV-1">
          <mxGeometry x="775.5" y="500" width="126" height="40" as="geometry" />
        </mxCell>
        <mxCell id="GH8MuH2LOj_dA2oBdt18-25" style="edgeStyle=orthogonalEdgeStyle;rounded=0;orthogonalLoop=1;jettySize=auto;html=1;entryX=0.5;entryY=0.5;entryDx=0;entryDy=-20;entryPerimeter=0;" edge="1" parent="WIyWlLk6GJQsqaUBKTNV-1" source="GH8MuH2LOj_dA2oBdt18-23" target="GH8MuH2LOj_dA2oBdt18-22">
          <mxGeometry relative="1" as="geometry" />
        </mxCell>
        <mxCell id="GH8MuH2LOj_dA2oBdt18-23" value="Randevuları kontrol et &lt;br&gt;ve düzenle" style="html=1;dashed=0;whitespace=wrap;" vertex="1" parent="WIyWlLk6GJQsqaUBKTNV-1">
          <mxGeometry x="768.5" y="420" width="140" height="40" as="geometry" />
        </mxCell>
        <mxCell id="GH8MuH2LOj_dA2oBdt18-31" style="edgeStyle=orthogonalEdgeStyle;rounded=0;orthogonalLoop=1;jettySize=auto;html=1;entryX=1;entryY=0.5;entryDx=0;entryDy=0;" edge="1" parent="WIyWlLk6GJQsqaUBKTNV-1" source="GH8MuH2LOj_dA2oBdt18-26" target="GH8MuH2LOj_dA2oBdt18-30">
          <mxGeometry relative="1" as="geometry" />
        </mxCell>
        <mxCell id="GH8MuH2LOj_dA2oBdt18-34" style="edgeStyle=orthogonalEdgeStyle;rounded=0;orthogonalLoop=1;jettySize=auto;html=1;entryX=0.5;entryY=0;entryDx=0;entryDy=0;" edge="1" parent="WIyWlLk6GJQsqaUBKTNV-1" source="GH8MuH2LOj_dA2oBdt18-26" target="GH8MuH2LOj_dA2oBdt18-33">
          <mxGeometry relative="1" as="geometry" />
        </mxCell>
        <mxCell id="GH8MuH2LOj_dA2oBdt18-37" style="edgeStyle=orthogonalEdgeStyle;rounded=0;orthogonalLoop=1;jettySize=auto;html=1;entryX=0;entryY=0.25;entryDx=0;entryDy=0;" edge="1" parent="WIyWlLk6GJQsqaUBKTNV-1" source="GH8MuH2LOj_dA2oBdt18-26" target="GH8MuH2LOj_dA2oBdt18-36">
          <mxGeometry relative="1" as="geometry" />
        </mxCell>
        <mxCell id="GH8MuH2LOj_dA2oBdt18-26" value="" style="shape=waypoint;sketch=0;fillStyle=solid;size=6;pointerEvents=1;points=[];fillColor=none;resizable=0;rotatable=0;perimeter=centerPerimeter;snapToPoint=1;" vertex="1" parent="WIyWlLk6GJQsqaUBKTNV-1">
          <mxGeometry x="238.5" y="330" width="40" height="40" as="geometry" />
        </mxCell>
        <mxCell id="GH8MuH2LOj_dA2oBdt18-55" style="edgeStyle=orthogonalEdgeStyle;rounded=0;jumpStyle=arc;orthogonalLoop=1;jettySize=auto;html=1;entryX=0.5;entryY=0;entryDx=0;entryDy=0;" edge="1" parent="WIyWlLk6GJQsqaUBKTNV-1" source="GH8MuH2LOj_dA2oBdt18-30" target="GH8MuH2LOj_dA2oBdt18-54">
          <mxGeometry relative="1" as="geometry" />
        </mxCell>
        <mxCell id="GH8MuH2LOj_dA2oBdt18-30" value="Randevularım" style="html=1;dashed=0;whitespace=wrap;" vertex="1" parent="WIyWlLk6GJQsqaUBKTNV-1">
          <mxGeometry x="55.75" y="330" width="117" height="40" as="geometry" />
        </mxCell>
        <mxCell id="GH8MuH2LOj_dA2oBdt18-74" style="edgeStyle=orthogonalEdgeStyle;rounded=0;jumpStyle=arc;orthogonalLoop=1;jettySize=auto;html=1;exitX=0.5;exitY=1;exitDx=0;exitDy=0;entryX=0.5;entryY=0.4;entryDx=0;entryDy=0;entryPerimeter=0;" edge="1" parent="WIyWlLk6GJQsqaUBKTNV-1" source="GH8MuH2LOj_dA2oBdt18-33" target="GH8MuH2LOj_dA2oBdt18-73">
          <mxGeometry relative="1" as="geometry">
            <Array as="points">
              <mxPoint x="259" y="470" />
              <mxPoint x="360" y="470" />
              <mxPoint x="360" y="690" />
              <mxPoint x="476" y="690" />
            </Array>
          </mxGeometry>
        </mxCell>
        <mxCell id="GH8MuH2LOj_dA2oBdt18-33" value="Profil" style="html=1;dashed=0;whitespace=wrap;" vertex="1" parent="WIyWlLk6GJQsqaUBKTNV-1">
          <mxGeometry x="200" y="400" width="117" height="40" as="geometry" />
        </mxCell>
        <mxCell id="GH8MuH2LOj_dA2oBdt18-39" style="edgeStyle=orthogonalEdgeStyle;rounded=0;orthogonalLoop=1;jettySize=auto;html=1;entryX=0.5;entryY=0;entryDx=0;entryDy=0;" edge="1" parent="WIyWlLk6GJQsqaUBKTNV-1" source="GH8MuH2LOj_dA2oBdt18-36" target="GH8MuH2LOj_dA2oBdt18-38">
          <mxGeometry relative="1" as="geometry" />
        </mxCell>
        <mxCell id="GH8MuH2LOj_dA2oBdt18-36" value="Mesajlarım" style="html=1;dashed=0;whitespace=wrap;" vertex="1" parent="WIyWlLk6GJQsqaUBKTNV-1">
          <mxGeometry x="374.5" y="340" width="117" height="40" as="geometry" />
        </mxCell>
        <mxCell id="GH8MuH2LOj_dA2oBdt18-40" style="edgeStyle=orthogonalEdgeStyle;rounded=0;orthogonalLoop=1;jettySize=auto;html=1;entryX=0;entryY=0.5;entryDx=0;entryDy=0;" edge="1" parent="WIyWlLk6GJQsqaUBKTNV-1" source="GH8MuH2LOj_dA2oBdt18-38" target="GH8MuH2LOj_dA2oBdt18-41">
          <mxGeometry relative="1" as="geometry">
            <mxPoint x="550" y="465" as="targetPoint" />
          </mxGeometry>
        </mxCell>
        <mxCell id="GH8MuH2LOj_dA2oBdt18-42" value="Evet" style="edgeLabel;html=1;align=center;verticalAlign=middle;resizable=0;points=[];" vertex="1" connectable="0" parent="GH8MuH2LOj_dA2oBdt18-40">
          <mxGeometry x="0.1406" y="1" relative="1" as="geometry">
            <mxPoint as="offset" />
          </mxGeometry>
        </mxCell>
        <mxCell id="GH8MuH2LOj_dA2oBdt18-43" style="edgeStyle=orthogonalEdgeStyle;rounded=0;orthogonalLoop=1;jettySize=auto;html=1;entryX=0.5;entryY=0;entryDx=0;entryDy=0;" edge="1" parent="WIyWlLk6GJQsqaUBKTNV-1" source="GH8MuH2LOj_dA2oBdt18-38" target="GH8MuH2LOj_dA2oBdt18-44">
          <mxGeometry relative="1" as="geometry">
            <mxPoint x="433" y="560" as="targetPoint" />
          </mxGeometry>
        </mxCell>
        <mxCell id="GH8MuH2LOj_dA2oBdt18-45" value="Hayır" style="edgeLabel;html=1;align=center;verticalAlign=middle;resizable=0;points=[];" vertex="1" connectable="0" parent="GH8MuH2LOj_dA2oBdt18-43">
          <mxGeometry x="-0.3986" y="1" relative="1" as="geometry">
            <mxPoint as="offset" />
          </mxGeometry>
        </mxCell>
        <mxCell id="GH8MuH2LOj_dA2oBdt18-38" value="Mesaj var mı?" style="rhombus;whiteSpace=wrap;html=1;shadow=0;fontFamily=Helvetica;fontSize=12;align=center;strokeWidth=1;spacing=6;spacingTop=-4;" vertex="1" parent="WIyWlLk6GJQsqaUBKTNV-1">
          <mxGeometry x="378.75" y="445" width="108.5" height="90" as="geometry" />
        </mxCell>
        <mxCell id="GH8MuH2LOj_dA2oBdt18-47" style="edgeStyle=orthogonalEdgeStyle;rounded=0;orthogonalLoop=1;jettySize=auto;html=1;" edge="1" parent="WIyWlLk6GJQsqaUBKTNV-1" source="GH8MuH2LOj_dA2oBdt18-41" target="GH8MuH2LOj_dA2oBdt18-46">
          <mxGeometry relative="1" as="geometry" />
        </mxCell>
        <mxCell id="GH8MuH2LOj_dA2oBdt18-41" value="Mesajları görüntüle" style="html=1;dashed=0;whitespace=wrap;" vertex="1" parent="WIyWlLk6GJQsqaUBKTNV-1">
          <mxGeometry x="581.5" y="470" width="117" height="40" as="geometry" />
        </mxCell>
        <mxCell id="GH8MuH2LOj_dA2oBdt18-48" style="edgeStyle=orthogonalEdgeStyle;rounded=0;orthogonalLoop=1;jettySize=auto;html=1;entryX=0.5;entryY=0.575;entryDx=0;entryDy=0;entryPerimeter=0;" edge="1" parent="WIyWlLk6GJQsqaUBKTNV-1" source="GH8MuH2LOj_dA2oBdt18-44" target="GH8MuH2LOj_dA2oBdt18-46">
          <mxGeometry relative="1" as="geometry" />
        </mxCell>
        <mxCell id="GH8MuH2LOj_dA2oBdt18-44" value="Mesaj yok&lt;br&gt;&amp;nbsp;arayüzünü göster" style="html=1;dashed=0;whitespace=wrap;" vertex="1" parent="WIyWlLk6GJQsqaUBKTNV-1">
          <mxGeometry x="374.5" y="570" width="117" height="40" as="geometry" />
        </mxCell>
        <mxCell id="GH8MuH2LOj_dA2oBdt18-50" style="edgeStyle=orthogonalEdgeStyle;rounded=0;orthogonalLoop=1;jettySize=auto;html=1;" edge="1" parent="WIyWlLk6GJQsqaUBKTNV-1" source="GH8MuH2LOj_dA2oBdt18-46" target="GH8MuH2LOj_dA2oBdt18-49">
          <mxGeometry relative="1" as="geometry" />
        </mxCell>
        <mxCell id="GH8MuH2LOj_dA2oBdt18-46" value="" style="shape=waypoint;sketch=0;fillStyle=solid;size=6;pointerEvents=1;points=[];fillColor=none;resizable=0;rotatable=0;perimeter=centerPerimeter;snapToPoint=1;" vertex="1" parent="WIyWlLk6GJQsqaUBKTNV-1">
          <mxGeometry x="620" y="570" width="40" height="40" as="geometry" />
        </mxCell>
        <mxCell id="GH8MuH2LOj_dA2oBdt18-51" style="edgeStyle=orthogonalEdgeStyle;rounded=0;orthogonalLoop=1;jettySize=auto;html=1;entryX=0;entryY=0.5;entryDx=0;entryDy=0;jumpStyle=arc;" edge="1" parent="WIyWlLk6GJQsqaUBKTNV-1" source="GH8MuH2LOj_dA2oBdt18-49" target="GH8MuH2LOj_dA2oBdt18-16">
          <mxGeometry relative="1" as="geometry">
            <Array as="points">
              <mxPoint x="30" y="640" />
              <mxPoint x="30" y="265" />
            </Array>
          </mxGeometry>
        </mxCell>
        <mxCell id="GH8MuH2LOj_dA2oBdt18-52" style="edgeStyle=orthogonalEdgeStyle;rounded=0;orthogonalLoop=1;jettySize=auto;html=1;entryX=0;entryY=0.5;entryDx=0;entryDy=0;jumpStyle=arc;" edge="1" parent="WIyWlLk6GJQsqaUBKTNV-1" source="GH8MuH2LOj_dA2oBdt18-49" target="GH8MuH2LOj_dA2oBdt18-30">
          <mxGeometry relative="1" as="geometry">
            <Array as="points">
              <mxPoint x="640" y="670" />
              <mxPoint x="40" y="670" />
              <mxPoint x="40" y="350" />
            </Array>
          </mxGeometry>
        </mxCell>
        <mxCell id="GH8MuH2LOj_dA2oBdt18-53" style="edgeStyle=orthogonalEdgeStyle;rounded=0;jumpStyle=arc;orthogonalLoop=1;jettySize=auto;html=1;entryX=1;entryY=0.5;entryDx=0;entryDy=0;" edge="1" parent="WIyWlLk6GJQsqaUBKTNV-1" source="GH8MuH2LOj_dA2oBdt18-49" target="GH8MuH2LOj_dA2oBdt18-33">
          <mxGeometry relative="1" as="geometry">
            <Array as="points">
              <mxPoint x="730" y="640" />
              <mxPoint x="730" y="420" />
            </Array>
          </mxGeometry>
        </mxCell>
        <mxCell id="GH8MuH2LOj_dA2oBdt18-49" value="" style="shape=waypoint;sketch=0;fillStyle=solid;size=6;pointerEvents=1;points=[];fillColor=none;resizable=0;rotatable=0;perimeter=centerPerimeter;snapToPoint=1;" vertex="1" parent="WIyWlLk6GJQsqaUBKTNV-1">
          <mxGeometry x="620" y="620" width="40" height="40" as="geometry" />
        </mxCell>
        <mxCell id="GH8MuH2LOj_dA2oBdt18-57" style="edgeStyle=orthogonalEdgeStyle;rounded=0;jumpStyle=arc;orthogonalLoop=1;jettySize=auto;html=1;entryX=0.5;entryY=0;entryDx=0;entryDy=0;" edge="1" parent="WIyWlLk6GJQsqaUBKTNV-1" source="GH8MuH2LOj_dA2oBdt18-54" target="GH8MuH2LOj_dA2oBdt18-56">
          <mxGeometry relative="1" as="geometry" />
        </mxCell>
        <mxCell id="GH8MuH2LOj_dA2oBdt18-58" value="Evet" style="edgeLabel;html=1;align=center;verticalAlign=middle;resizable=0;points=[];" vertex="1" connectable="0" parent="GH8MuH2LOj_dA2oBdt18-57">
          <mxGeometry x="-0.5859" y="-2" relative="1" as="geometry">
            <mxPoint as="offset" />
          </mxGeometry>
        </mxCell>
        <mxCell id="GH8MuH2LOj_dA2oBdt18-62" style="edgeStyle=orthogonalEdgeStyle;rounded=0;jumpStyle=arc;orthogonalLoop=1;jettySize=auto;html=1;entryX=0.5;entryY=0;entryDx=0;entryDy=0;" edge="1" parent="WIyWlLk6GJQsqaUBKTNV-1" source="GH8MuH2LOj_dA2oBdt18-54" target="GH8MuH2LOj_dA2oBdt18-61">
          <mxGeometry relative="1" as="geometry" />
        </mxCell>
        <mxCell id="GH8MuH2LOj_dA2oBdt18-63" value="Hayır" style="edgeLabel;html=1;align=center;verticalAlign=middle;resizable=0;points=[];" vertex="1" connectable="0" parent="GH8MuH2LOj_dA2oBdt18-62">
          <mxGeometry x="-0.3131" relative="1" as="geometry">
            <mxPoint y="2" as="offset" />
          </mxGeometry>
        </mxCell>
        <mxCell id="GH8MuH2LOj_dA2oBdt18-54" value="Randevu var mı?" style="rhombus;whiteSpace=wrap;html=1;shadow=0;fontFamily=Helvetica;fontSize=12;align=center;strokeWidth=1;spacing=6;spacingTop=-4;" vertex="1" parent="WIyWlLk6GJQsqaUBKTNV-1">
          <mxGeometry x="60" y="445" width="108.5" height="90" as="geometry" />
        </mxCell>
        <mxCell id="GH8MuH2LOj_dA2oBdt18-60" style="edgeStyle=orthogonalEdgeStyle;rounded=0;jumpStyle=arc;orthogonalLoop=1;jettySize=auto;html=1;entryX=0.5;entryY=0;entryDx=0;entryDy=0;" edge="1" parent="WIyWlLk6GJQsqaUBKTNV-1" source="GH8MuH2LOj_dA2oBdt18-56" target="GH8MuH2LOj_dA2oBdt18-59">
          <mxGeometry relative="1" as="geometry" />
        </mxCell>
        <mxCell id="GH8MuH2LOj_dA2oBdt18-56" value="Randevuları göster" style="html=1;dashed=0;whitespace=wrap;" vertex="1" parent="WIyWlLk6GJQsqaUBKTNV-1">
          <mxGeometry x="190" y="570" width="117" height="40" as="geometry" />
        </mxCell>
        <mxCell id="GH8MuH2LOj_dA2oBdt18-65" style="edgeStyle=orthogonalEdgeStyle;rounded=0;jumpStyle=arc;orthogonalLoop=1;jettySize=auto;html=1;entryX=0.588;entryY=0.625;entryDx=0;entryDy=0;entryPerimeter=0;" edge="1" parent="WIyWlLk6GJQsqaUBKTNV-1" source="GH8MuH2LOj_dA2oBdt18-59" target="GH8MuH2LOj_dA2oBdt18-64">
          <mxGeometry relative="1" as="geometry" />
        </mxCell>
        <mxCell id="GH8MuH2LOj_dA2oBdt18-59" value="Seçilen randevunun &lt;br&gt;bilgilerini göster" style="html=1;dashed=0;whitespace=wrap;" vertex="1" parent="WIyWlLk6GJQsqaUBKTNV-1">
          <mxGeometry x="190" y="700" width="117" height="40" as="geometry" />
        </mxCell>
        <mxCell id="GH8MuH2LOj_dA2oBdt18-66" style="edgeStyle=orthogonalEdgeStyle;rounded=0;jumpStyle=arc;orthogonalLoop=1;jettySize=auto;html=1;" edge="1" parent="WIyWlLk6GJQsqaUBKTNV-1" source="GH8MuH2LOj_dA2oBdt18-61" target="GH8MuH2LOj_dA2oBdt18-64">
          <mxGeometry relative="1" as="geometry" />
        </mxCell>
        <mxCell id="GH8MuH2LOj_dA2oBdt18-61" value="Randevu yok&lt;br&gt;&amp;nbsp;arayüzünü göster" style="html=1;dashed=0;whitespace=wrap;" vertex="1" parent="WIyWlLk6GJQsqaUBKTNV-1">
          <mxGeometry x="55.75" y="570" width="117" height="40" as="geometry" />
        </mxCell>
        <mxCell id="GH8MuH2LOj_dA2oBdt18-68" style="edgeStyle=orthogonalEdgeStyle;rounded=0;jumpStyle=arc;orthogonalLoop=1;jettySize=auto;html=1;" edge="1" parent="WIyWlLk6GJQsqaUBKTNV-1" source="GH8MuH2LOj_dA2oBdt18-64" target="GH8MuH2LOj_dA2oBdt18-67">
          <mxGeometry relative="1" as="geometry" />
        </mxCell>
        <mxCell id="GH8MuH2LOj_dA2oBdt18-64" value="" style="shape=waypoint;sketch=0;fillStyle=solid;size=6;pointerEvents=1;points=[];fillColor=none;resizable=0;rotatable=0;perimeter=centerPerimeter;snapToPoint=1;" vertex="1" parent="WIyWlLk6GJQsqaUBKTNV-1">
          <mxGeometry x="94.25" y="700" width="40" height="40" as="geometry" />
        </mxCell>
        <mxCell id="GH8MuH2LOj_dA2oBdt18-69" style="edgeStyle=orthogonalEdgeStyle;rounded=0;jumpStyle=arc;orthogonalLoop=1;jettySize=auto;html=1;entryX=0;entryY=0.5;entryDx=0;entryDy=0;" edge="1" parent="WIyWlLk6GJQsqaUBKTNV-1" source="GH8MuH2LOj_dA2oBdt18-67" target="GH8MuH2LOj_dA2oBdt18-33">
          <mxGeometry relative="1" as="geometry">
            <Array as="points">
              <mxPoint x="180" y="770" />
              <mxPoint x="180" y="420" />
            </Array>
          </mxGeometry>
        </mxCell>
        <mxCell id="GH8MuH2LOj_dA2oBdt18-70" style="edgeStyle=orthogonalEdgeStyle;rounded=0;jumpStyle=arc;orthogonalLoop=1;jettySize=auto;html=1;entryX=0;entryY=0.75;entryDx=0;entryDy=0;" edge="1" parent="WIyWlLk6GJQsqaUBKTNV-1" source="GH8MuH2LOj_dA2oBdt18-67" target="GH8MuH2LOj_dA2oBdt18-36">
          <mxGeometry relative="1" as="geometry">
            <Array as="points">
              <mxPoint x="114" y="800" />
              <mxPoint x="340" y="800" />
              <mxPoint x="340" y="370" />
            </Array>
          </mxGeometry>
        </mxCell>
        <mxCell id="GH8MuH2LOj_dA2oBdt18-71" style="edgeStyle=orthogonalEdgeStyle;rounded=0;jumpStyle=arc;orthogonalLoop=1;jettySize=auto;html=1;entryX=0.25;entryY=0;entryDx=0;entryDy=0;" edge="1" parent="WIyWlLk6GJQsqaUBKTNV-1" source="GH8MuH2LOj_dA2oBdt18-67" target="GH8MuH2LOj_dA2oBdt18-16">
          <mxGeometry relative="1" as="geometry">
            <Array as="points">
              <mxPoint x="20" y="770" />
              <mxPoint x="20" y="225" />
              <mxPoint x="229" y="225" />
            </Array>
          </mxGeometry>
        </mxCell>
        <mxCell id="GH8MuH2LOj_dA2oBdt18-67" value="" style="shape=waypoint;sketch=0;fillStyle=solid;size=6;pointerEvents=1;points=[];fillColor=none;resizable=0;rotatable=0;perimeter=centerPerimeter;snapToPoint=1;strokeWidth=1;" vertex="1" parent="WIyWlLk6GJQsqaUBKTNV-1">
          <mxGeometry x="94.25" y="750" width="40" height="40" as="geometry" />
        </mxCell>
        <mxCell id="GH8MuH2LOj_dA2oBdt18-76" style="edgeStyle=orthogonalEdgeStyle;rounded=0;jumpStyle=arc;orthogonalLoop=1;jettySize=auto;html=1;entryX=0.5;entryY=0;entryDx=0;entryDy=0;" edge="1" parent="WIyWlLk6GJQsqaUBKTNV-1" source="GH8MuH2LOj_dA2oBdt18-73" target="GH8MuH2LOj_dA2oBdt18-75">
          <mxGeometry relative="1" as="geometry" />
        </mxCell>
        <mxCell id="GH8MuH2LOj_dA2oBdt18-81" style="edgeStyle=orthogonalEdgeStyle;rounded=0;jumpStyle=arc;orthogonalLoop=1;jettySize=auto;html=1;entryX=0.5;entryY=0;entryDx=0;entryDy=0;" edge="1" parent="WIyWlLk6GJQsqaUBKTNV-1" source="GH8MuH2LOj_dA2oBdt18-73" target="GH8MuH2LOj_dA2oBdt18-80">
          <mxGeometry relative="1" as="geometry">
            <Array as="points">
              <mxPoint x="380" y="720" />
              <mxPoint x="380" y="830" />
              <mxPoint x="268" y="830" />
            </Array>
          </mxGeometry>
        </mxCell>
        <mxCell id="GH8MuH2LOj_dA2oBdt18-85" style="edgeStyle=orthogonalEdgeStyle;rounded=0;jumpStyle=arc;orthogonalLoop=1;jettySize=auto;html=1;entryX=0;entryY=0.5;entryDx=0;entryDy=0;" edge="1" parent="WIyWlLk6GJQsqaUBKTNV-1" source="GH8MuH2LOj_dA2oBdt18-73" target="GH8MuH2LOj_dA2oBdt18-84">
          <mxGeometry relative="1" as="geometry" />
        </mxCell>
        <mxCell id="GH8MuH2LOj_dA2oBdt18-73" value="" style="shape=waypoint;sketch=0;fillStyle=solid;size=6;pointerEvents=1;points=[];fillColor=none;resizable=0;rotatable=0;perimeter=centerPerimeter;snapToPoint=1;" vertex="1" parent="WIyWlLk6GJQsqaUBKTNV-1">
          <mxGeometry x="456" y="700" width="40" height="40" as="geometry" />
        </mxCell>
        <mxCell id="GH8MuH2LOj_dA2oBdt18-78" style="edgeStyle=orthogonalEdgeStyle;rounded=0;jumpStyle=arc;orthogonalLoop=1;jettySize=auto;html=1;entryX=0.5;entryY=0;entryDx=0;entryDy=0;" edge="1" parent="WIyWlLk6GJQsqaUBKTNV-1" source="GH8MuH2LOj_dA2oBdt18-75" target="GH8MuH2LOj_dA2oBdt18-77">
          <mxGeometry relative="1" as="geometry" />
        </mxCell>
        <mxCell id="GH8MuH2LOj_dA2oBdt18-75" value="Konum ayarları" style="html=1;dashed=0;whitespace=wrap;" vertex="1" parent="WIyWlLk6GJQsqaUBKTNV-1">
          <mxGeometry x="417.5" y="770" width="117" height="40" as="geometry" />
        </mxCell>
        <mxCell id="GH8MuH2LOj_dA2oBdt18-90" style="edgeStyle=orthogonalEdgeStyle;rounded=0;jumpStyle=arc;orthogonalLoop=1;jettySize=auto;html=1;entryX=0.513;entryY=0.05;entryDx=0;entryDy=0;entryPerimeter=0;" edge="1" parent="WIyWlLk6GJQsqaUBKTNV-1" source="GH8MuH2LOj_dA2oBdt18-77" target="GH8MuH2LOj_dA2oBdt18-88">
          <mxGeometry relative="1" as="geometry" />
        </mxCell>
        <mxCell id="GH8MuH2LOj_dA2oBdt18-77" value="Konum arayüzünü &lt;br&gt;göster" style="html=1;dashed=0;whitespace=wrap;" vertex="1" parent="WIyWlLk6GJQsqaUBKTNV-1">
          <mxGeometry x="417.5" y="850" width="117" height="40" as="geometry" />
        </mxCell>
        <mxCell id="GH8MuH2LOj_dA2oBdt18-83" style="edgeStyle=orthogonalEdgeStyle;rounded=0;jumpStyle=arc;orthogonalLoop=1;jettySize=auto;html=1;entryX=0.5;entryY=0;entryDx=0;entryDy=0;" edge="1" parent="WIyWlLk6GJQsqaUBKTNV-1" source="GH8MuH2LOj_dA2oBdt18-80" target="GH8MuH2LOj_dA2oBdt18-82">
          <mxGeometry relative="1" as="geometry" />
        </mxCell>
        <mxCell id="GH8MuH2LOj_dA2oBdt18-80" value="Geçmiş Randevularım" style="html=1;dashed=0;whitespace=wrap;" vertex="1" parent="WIyWlLk6GJQsqaUBKTNV-1">
          <mxGeometry x="200" y="850" width="135.5" height="40" as="geometry" />
        </mxCell>
        <mxCell id="GH8MuH2LOj_dA2oBdt18-91" style="edgeStyle=orthogonalEdgeStyle;rounded=0;jumpStyle=arc;orthogonalLoop=1;jettySize=auto;html=1;entryX=0.338;entryY=0.525;entryDx=0;entryDy=0;entryPerimeter=0;" edge="1" parent="WIyWlLk6GJQsqaUBKTNV-1" source="GH8MuH2LOj_dA2oBdt18-82" target="GH8MuH2LOj_dA2oBdt18-88">
          <mxGeometry relative="1" as="geometry" />
        </mxCell>
        <mxCell id="GH8MuH2LOj_dA2oBdt18-82" value="Geçmiş randevuları&lt;br&gt;göster" style="html=1;dashed=0;whitespace=wrap;" vertex="1" parent="WIyWlLk6GJQsqaUBKTNV-1">
          <mxGeometry x="209.25" y="930" width="117" height="40" as="geometry" />
        </mxCell>
        <mxCell id="GH8MuH2LOj_dA2oBdt18-87" style="edgeStyle=orthogonalEdgeStyle;rounded=0;jumpStyle=arc;orthogonalLoop=1;jettySize=auto;html=1;entryX=0.5;entryY=0;entryDx=0;entryDy=0;" edge="1" parent="WIyWlLk6GJQsqaUBKTNV-1" source="GH8MuH2LOj_dA2oBdt18-84" target="GH8MuH2LOj_dA2oBdt18-86">
          <mxGeometry relative="1" as="geometry" />
        </mxCell>
        <mxCell id="GH8MuH2LOj_dA2oBdt18-84" value="Profil ayarları" style="html=1;dashed=0;whitespace=wrap;" vertex="1" parent="WIyWlLk6GJQsqaUBKTNV-1">
          <mxGeometry x="581.5" y="700" width="117" height="40" as="geometry" />
        </mxCell>
        <mxCell id="GH8MuH2LOj_dA2oBdt18-89" style="edgeStyle=orthogonalEdgeStyle;rounded=0;jumpStyle=arc;orthogonalLoop=1;jettySize=auto;html=1;entryX=0.463;entryY=0.65;entryDx=0;entryDy=0;entryPerimeter=0;" edge="1" parent="WIyWlLk6GJQsqaUBKTNV-1" source="GH8MuH2LOj_dA2oBdt18-86" target="GH8MuH2LOj_dA2oBdt18-88">
          <mxGeometry relative="1" as="geometry">
            <Array as="points">
              <mxPoint x="640" y="950" />
            </Array>
          </mxGeometry>
        </mxCell>
        <mxCell id="GH8MuH2LOj_dA2oBdt18-86" value="Profil arayüzünü &lt;br&gt;göster" style="html=1;dashed=0;whitespace=wrap;" vertex="1" parent="WIyWlLk6GJQsqaUBKTNV-1">
          <mxGeometry x="581.5" y="810" width="117" height="40" as="geometry" />
        </mxCell>
        <mxCell id="GH8MuH2LOj_dA2oBdt18-93" style="edgeStyle=orthogonalEdgeStyle;rounded=0;jumpStyle=arc;orthogonalLoop=1;jettySize=auto;html=1;entryX=0.613;entryY=0.425;entryDx=0;entryDy=0;entryPerimeter=0;" edge="1" parent="WIyWlLk6GJQsqaUBKTNV-1" source="GH8MuH2LOj_dA2oBdt18-88" target="GH8MuH2LOj_dA2oBdt18-92">
          <mxGeometry relative="1" as="geometry" />
        </mxCell>
        <mxCell id="GH8MuH2LOj_dA2oBdt18-88" value="" style="shape=waypoint;sketch=0;fillStyle=solid;size=6;pointerEvents=1;points=[];fillColor=none;resizable=0;rotatable=0;perimeter=centerPerimeter;snapToPoint=1;" vertex="1" parent="WIyWlLk6GJQsqaUBKTNV-1">
          <mxGeometry x="494.5" y="930" width="40" height="40" as="geometry" />
        </mxCell>
        <mxCell id="GH8MuH2LOj_dA2oBdt18-94" style="edgeStyle=orthogonalEdgeStyle;rounded=0;jumpStyle=arc;orthogonalLoop=1;jettySize=auto;html=1;entryX=1;entryY=0.5;entryDx=0;entryDy=0;" edge="1" parent="WIyWlLk6GJQsqaUBKTNV-1" source="GH8MuH2LOj_dA2oBdt18-92" target="GH8MuH2LOj_dA2oBdt18-36">
          <mxGeometry relative="1" as="geometry">
            <Array as="points">
              <mxPoint x="750" y="990" />
              <mxPoint x="750" y="360" />
            </Array>
          </mxGeometry>
        </mxCell>
        <mxCell id="GH8MuH2LOj_dA2oBdt18-95" style="edgeStyle=orthogonalEdgeStyle;rounded=0;jumpStyle=arc;orthogonalLoop=1;jettySize=auto;html=1;entryX=0.342;entryY=0.025;entryDx=0;entryDy=0;entryPerimeter=0;" edge="1" parent="WIyWlLk6GJQsqaUBKTNV-1" source="GH8MuH2LOj_dA2oBdt18-92" target="GH8MuH2LOj_dA2oBdt18-16">
          <mxGeometry relative="1" as="geometry">
            <Array as="points">
              <mxPoint x="10" y="990" />
              <mxPoint x="10" y="210" />
              <mxPoint x="240" y="210" />
            </Array>
          </mxGeometry>
        </mxCell>
        <mxCell id="GH8MuH2LOj_dA2oBdt18-96" style="edgeStyle=orthogonalEdgeStyle;rounded=0;jumpStyle=arc;orthogonalLoop=1;jettySize=auto;html=1;entryX=0.25;entryY=0;entryDx=0;entryDy=0;" edge="1" parent="WIyWlLk6GJQsqaUBKTNV-1" source="GH8MuH2LOj_dA2oBdt18-92" target="GH8MuH2LOj_dA2oBdt18-33">
          <mxGeometry relative="1" as="geometry">
            <Array as="points">
              <mxPoint x="515" y="1020" />
              <mxPoint x="350" y="1020" />
              <mxPoint x="350" y="380" />
              <mxPoint x="229" y="380" />
            </Array>
          </mxGeometry>
        </mxCell>
        <mxCell id="GH8MuH2LOj_dA2oBdt18-92" value="" style="shape=waypoint;sketch=0;fillStyle=solid;size=6;pointerEvents=1;points=[];fillColor=none;resizable=0;rotatable=0;perimeter=centerPerimeter;snapToPoint=1;" vertex="1" parent="WIyWlLk6GJQsqaUBKTNV-1">
          <mxGeometry x="494.5" y="970" width="40" height="40" as="geometry" />
        </mxCell>
      </root>
    </mxGraphModel>
  </diagram>
</mxfile>
